<?xml version="1.0" encoding="UTF-8" standalone="no"?>
<!-- Created with Inkscape (http://www.inkscape.org/) -->

<svg
   xmlns:dc="http://purl.org/dc/elements/1.1/"
   xmlns:cc="http://creativecommons.org/ns#"
   xmlns:rdf="http://www.w3.org/1999/02/22-rdf-syntax-ns#"
   xmlns:svg="http://www.w3.org/2000/svg"
   xmlns="http://www.w3.org/2000/svg"
   xmlns:xlink="http://www.w3.org/1999/xlink"
   xmlns:sodipodi="http://sodipodi.sourceforge.net/DTD/sodipodi-0.dtd"
   xmlns:inkscape="http://www.inkscape.org/namespaces/inkscape"
   width="166.46849"
   height="99.978271"
   id="svg3954"
   version="1.1"
   inkscape:version="0.48.2 r9819"
   sodipodi:docname="Deutsch USA.svg">
  <defs
     id="defs3956">
    <linearGradient
       id="linearGradient3825-2-2-21-2">
      <stop
         style="stop-color:#ffffff;stop-opacity:0.47058824;"
         offset="0"
         id="stop3827-4-4-6-3" />
      <stop
         style="stop-color:#ffffff;stop-opacity:0;"
         offset="1"
         id="stop3829-5-5-8-3" />
    </linearGradient>
    <linearGradient
       inkscape:collect="always"
       xlink:href="#linearGradient3825-2-2-21-2"
       id="linearGradient4523"
       gradientUnits="userSpaceOnUse"
       gradientTransform="matrix(0.69230769,0,0,1.4444444,706.24238,-922.00245)"
       x1="-135.37196"
       y1="640.40204"
       x2="-70.371964"
       y2="640.40204" />
    <linearGradient
       id="linearGradient3825-2-2-21-2-7">
      <stop
         style="stop-color:#ffffff;stop-opacity:0.47058824;"
         offset="0"
         id="stop3827-4-4-6-3-4" />
      <stop
         style="stop-color:#ffffff;stop-opacity:0;"
         offset="1"
         id="stop3829-5-5-8-3-0" />
    </linearGradient>
    <linearGradient
       y2="640.40204"
       x2="-70.371964"
       y1="640.40204"
       x1="-135.37196"
       gradientTransform="matrix(0.69230769,0,0,1.4444444,594.0037,-1566.3186)"
       gradientUnits="userSpaceOnUse"
       id="linearGradient5821"
       xlink:href="#linearGradient3825-2-2-21-2-7"
       inkscape:collect="always" />
    <linearGradient
       id="linearGradient3825-2-2-21-2-1">
      <stop
         style="stop-color:#ffffff;stop-opacity:0.47058824;"
         offset="0"
         id="stop3827-4-4-6-3-7" />
      <stop
         style="stop-color:#ffffff;stop-opacity:0;"
         offset="1"
         id="stop3829-5-5-8-3-4" />
    </linearGradient>
    <linearGradient
       y2="640.40204"
       x2="-70.371964"
       y1="640.40204"
       x1="-135.37196"
       gradientTransform="matrix(0.69230769,0,0,1.4444444,723.59278,-836.61132)"
       gradientUnits="userSpaceOnUse"
       id="linearGradient9326"
       xlink:href="#linearGradient3825-2-2-21-2-1"
       inkscape:collect="always" />
  </defs>
  <sodipodi:namedview
     id="base"
     pagecolor="#ffffff"
     bordercolor="#666666"
     borderopacity="1.0"
     inkscape:pageopacity="0.0"
     inkscape:pageshadow="2"
     inkscape:zoom="2.1399702"
     inkscape:cx="-108.65185"
     inkscape:cy="14.823885"
     inkscape:document-units="px"
     inkscape:current-layer="layer1"
     showgrid="false"
     inkscape:window-width="1366"
     inkscape:window-height="716"
     inkscape:window-x="-8"
     inkscape:window-y="-8"
     inkscape:window-maximized="1"
     fit-margin-top="5"
     fit-margin-left="5"
     fit-margin-right="5"
     fit-margin-bottom="5">
    <inkscape:grid
       type="xygrid"
       id="grid3817"
       empspacing="5"
       visible="true"
       enabled="true"
       snapvisiblegridlinesonly="true" />
  </sodipodi:namedview>
  <metadata
     id="metadata3959">
    <rdf:RDF>
      <cc:Work
         rdf:about="">
        <dc:format>image/svg+xml</dc:format>
        <dc:type
           rdf:resource="http://purl.org/dc/dcmitype/StillImage" />
        <dc:title></dc:title>
      </cc:Work>
    </rdf:RDF>
  </metadata>
  <g
     inkscape:label="Ebene 1"
     inkscape:groupmode="layer"
     id="layer1"
     transform="translate(131.17361,-599.55978)">
    <g
       transform="translate(80.968485,-20.07203)"
       id="g14249">
      <path
         inkscape:connector-curvature="0"
         id="path3154-0-1-7-7-7-9-8-5-7-4-7-7-1-3-0"
         d="m -114.92361,624.88181 c -6.094,0 -11,4.906 -11,11 l 0,33 c 0,6.09401 4.906,11 11,11 l 21.312501,0 c -5.12251,5.19858 -12.190391,9.43332 -19.218751,14.40625 11.75854,-1.0614 27.182461,-1.3446 44.625005,-14.40625 l 6.28125,0 c 6.094,0 11,-4.90599 11,-11 l 0,-33 c 0,-6.094 -4.906,-11 -11,-11 l -53.000005,0 z"
         style="fill:#ffffff;fill-opacity:1;fill-rule:evenodd;stroke:#000000;stroke-width:0.5;stroke-linejoin:round;stroke-miterlimit:4;stroke-opacity:1;stroke-dasharray:none" />
      <path
         sodipodi:nodetypes="sssscccsssss"
         inkscape:connector-curvature="0"
         id="path11744"
         d="m -113.42361,627.39017 c -5.54,0 -10,4.46001 -10,10 l 0,30 c 0,5.54 4.46,10 10,10 l 24.468751,0 c -3.47337,5.52082 -10.57891,11.0925 -17.750331,14.69106 11.908661,-1.73843 25.159111,-4.93043 38.125331,-14.69106 l 5.15625,0 c 5.54,0 10,-4.46 10,-10 l 0,-30 c 0,-5.53999 -4.46,-10 -10,-10 z"
         style="fill:#d4213d;fill-opacity:1;stroke:none" />
      <path
         inkscape:connector-curvature="0"
         id="rect2985"
         transform="translate(-131.17361,619.63181)"
         d="m 17.75,7.75 c -5.54,0 -10,4.46001 -10,10 l 0,15 70,0 0,-15 c 0,-5.53999 -4.46,-10 -10,-10 l -50,0 z"
         style="fill:#ffffff;fill-opacity:1;fill-rule:nonzero;stroke:none" />
      <path
         style="fill:none;stroke:#000000;stroke-width:0.5;stroke-linejoin:round;stroke-miterlimit:4;stroke-opacity:1;stroke-dasharray:none"
         d="m -113.42361,627.39017 c -5.54,0 -10,4.46001 -10,10 l 0,30 c 0,5.54 4.46,10 10,10 l 24.468751,0 c -3.47337,5.52082 -10.57891,11.0925 -17.750331,14.69106 11.908661,-1.73843 25.159111,-4.93043 38.125331,-14.69106 l 5.15625,0 c 5.54,0 10,-4.46 10,-10 l 0,-30 c 0,-5.53999 -4.46,-10 -10,-10 z"
         id="path4474-2-9"
         inkscape:connector-curvature="0"
         sodipodi:nodetypes="sssscccsssss" />
      <rect
         transform="matrix(0,1,-1,0,0,0)"
         style="color:#000000;fill:url(#linearGradient9326);fill-opacity:1;fill-rule:nonzero;stroke:none;stroke-width:1;marker:none;visibility:visible;display:inline;overflow:visible;enable-background:accumulate"
         id="rect4341-4"
         width="45"
         height="65"
         x="629.87372"
         y="55.913845"
         rx="9"
         ry="9" />
    </g>
    <g
       id="g4504"
       transform="matrix(-1,0,0,1,-91.456086,17.3504)">
      <path
         inkscape:connector-curvature="0"
         id="path3154-0-1-7-7-7-9-8-5-7-4-7-7-1-3"
         d="m -29.53248,607.53141 c -6.094,0 -11,4.906 -11,11 l 0,33 c 0,6.09401 4.906,11 11,11 l 21.3124999,0 c -5.1225099,5.19858 -12.1903899,9.43332 -19.2187499,14.40625 11.75854,-1.0614 27.18245995,-1.3446 44.625004,-14.40625 l 6.28125,0 c 6.094,0 11,-4.90599 11,-11 l 0,-33 c 0,-6.094 -4.906,-11 -11,-11 l -53.000004,0 z"
         style="fill:#ffffff;fill-opacity:1;fill-rule:evenodd;stroke:#000000;stroke-width:0.5;stroke-linejoin:round;stroke-miterlimit:4;stroke-opacity:1;stroke-dasharray:none" />
      <g
         transform="translate(86.41174,-21.432834)"
         id="g4427">
        <path
           style="fill:#ff0000;fill-opacity:1;stroke:none"
           d="m 3,45.125 0,16.65625 70,0 0,-16.65625 -70,0 z"
           transform="translate(-127.44422,603.00387)"
           id="rect3927-1"
           inkscape:connector-curvature="0" />
        <path
           style="fill:#000000;fill-opacity:1;stroke:none"
           d="m 13,28.46875 c -5.54,0 -10,4.46 -10,10 l 0,6.65625 70,0 0,-6.65625 c 0,-5.54 -4.46,-10 -10,-10 l -50,0 z"
           transform="translate(-127.44422,603.00387)"
           id="rect3954"
           inkscape:connector-curvature="0" />
        <path
           style="fill:#ffcc00;fill-opacity:1;stroke:none"
           d="m 3,61.78125 0,6.6875 c 0,5.54 4.46,10 10,10 l 24.46875,0 c -3.47337,5.52082 -10.57858,11.08895 -17.75,14.6875 11.90866,-1.73842 25.158778,-4.92688 38.125,-14.6875 l 5.15625,0 c 5.54,0 10,-4.46 10,-10 l 0,-6.6875 -70,0 z"
           transform="translate(-127.44422,603.00387)"
           id="rect3958"
           inkscape:connector-curvature="0" />
      </g>
      <rect
         transform="matrix(0,1,-1,0,0,0)"
         style="color:#000000;fill:url(#linearGradient4523);fill-opacity:1;fill-rule:nonzero;stroke:none;stroke-width:1;marker:none;visibility:visible;display:inline;overflow:visible;enable-background:accumulate"
         id="rect4341"
         width="45"
         height="65"
         x="612.52332"
         y="-29.477285"
         rx="9"
         ry="9" />
      <path
         style="fill:none;stroke:#000000;stroke-width:0.5;stroke-linejoin:round;stroke-miterlimit:4;stroke-opacity:1;stroke-dasharray:none"
         d="m -28.03248,610.03978 c -5.54,0 -10,4.46001 -10,10 l 0,30 c 0,5.54 4.46,10 10,10 l 24.4687499,0 c -3.47337,5.52082 -10.5789099,11.0925 -17.7503299,14.69106 11.9086599,-1.73843 25.1591099,-4.93043 38.12533,-14.69106 l 5.15625,0 c 5.54,0 10,-4.46 10,-10 l 0,-30 c 0,-5.53999 -4.46,-10 -10,-10 z"
         id="path4474-2"
         inkscape:connector-curvature="0"
         sodipodi:nodetypes="sssscccsssss" />
    </g>
  </g>
</svg>
